<?xml version="1.0" standalone="no"?>
<!DOCTYPE svg PUBLIC "-//W3C//DTD SVG 20010904//EN"
 "http://www.w3.org/TR/2001/REC-SVG-20010904/DTD/svg10.dtd">
<svg version="1.0" xmlns="http://www.w3.org/2000/svg"
 width="225.000000pt" height="225.000000pt" viewBox="0 0 225.000000 225.000000"
 preserveAspectRatio="xMidYMid meet">

<g transform="translate(0.000000,225.000000) scale(0.100000,-0.100000)"
fill="#000000" stroke="none">
<path d="M600 2240 c-80 -4 -174 -15 -209 -25 -187 -49 -308 -170 -356 -355
-22 -85 -34 -356 -33 -725 1 -249 11 -567 16 -512 1 9 7 26 14 37 12 18 13 18
31 -8 l18 -27 -7 28 c-5 20 -2 27 9 27 8 0 18 7 21 16 4 10 2 13 -7 8 -8 -5
-8 -2 2 9 7 9 17 14 22 11 14 -8 50 6 44 17 -4 5 -1 9 6 9 6 0 9 -8 7 -18 -3
-11 0 -19 7 -19 7 0 12 10 11 21 -1 15 5 21 19 21 16 0 21 9 27 45 5 40 6 39
5 -17 -2 -67 10 -73 15 -8 3 42 19 51 28 15 3 -11 5 145 6 347 1 399 7 458 58
565 32 67 120 157 189 192 105 53 166 59 582 59 417 0 471 -6 581 -60 66 -32
141 -102 178 -166 14 -24 36 -79 48 -123 20 -75 21 -100 21 -479 0 -378 -1
-404 -21 -479 -33 -118 -104 -226 -174 -262 -16 -8 -27 -18 -24 -22 2 -4 -3
-8 -12 -9 -28 -3 -122 -37 -122 -45 0 -5 8 -8 18 -9 11 0 12 -2 4 -6 -7 -3
-19 1 -27 7 -12 10 -25 10 -61 0 l-46 -13 34 -15 c25 -11 29 -16 16 -19 -22
-5 -23 -19 -2 -27 8 -3 12 -10 9 -16 -3 -6 1 -13 9 -16 20 -8 21 -24 1 -24 -8
0 -15 -3 -15 -7 1 -16 38 -78 46 -78 5 0 9 -16 9 -35 l0 -35 91 1 c304 5 491
153 539 429 12 68 18 193 22 515 6 467 -6 807 -33 904 -39 145 -121 249 -246
310 -125 61 -187 67 -738 71 -267 2 -550 0 -630 -5z m-573 -1547 c-3 -10 -5
-4 -5 12 0 17 2 24 5 18 2 -7 2 -21 0 -30z m1528 -413 c13 -6 15 -9 5 -9 -8 0
-22 4 -30 9 -18 12 -2 12 25 0z"/>
<path d="M721 1790 c-75 -11 -159 -57 -198 -108 -63 -83 -66 -107 -69 -512 -1
-201 2 -345 6 -320 l7 45 3 -50 c1 -27 4 -42 7 -32 3 12 16 18 46 19 68 3 132
-3 135 -13 7 -18 42 -8 58 16 9 14 19 23 22 20 3 -3 -3 -13 -12 -24 -17 -18
-16 -19 7 -17 15 0 23 6 20 14 -7 18 4 15 27 -8 20 -20 47 -19 34 1 -3 5 -10
7 -15 4 -5 -3 -6 1 -3 9 3 9 2 16 -3 16 -5 0 -17 16 -26 36 -10 19 -21 32 -26
29 -6 -3 -9 3 -9 12 1 10 -7 45 -17 77 -27 91 -18 212 21 296 45 95 110 162
202 207 74 37 79 38 187 38 108 0 113 -1 187 -38 91 -45 157 -112 202 -207 29
-61 31 -73 31 -176 0 -107 -1 -112 -37 -185 -56 -113 -139 -182 -283 -234 -16
-6 -17 -8 -5 -14 27 -11 23 -32 -5 -25 -20 5 -24 3 -19 -10 3 -9 11 -16 18
-16 15 -1 66 -46 66 -60 0 -5 4 -10 10 -10 5 0 20 -10 33 -23 13 -12 32 -28
43 -35 13 -9 15 -14 7 -18 -20 -9 -15 -24 7 -24 11 0 20 -4 20 -10 0 -5 9 -10
20 -10 11 0 20 4 20 9 0 5 18 7 39 4 64 -9 170 29 221 78 92 89 103 162 98
640 -4 299 -7 362 -21 406 -38 113 -125 182 -257 203 -75 11 -718 11 -799 0z
m915 -151 c51 -48 35 -137 -29 -164 -42 -17 -79 -9 -110 23 -31 34 -38 65 -25
104 23 65 112 86 164 37z"/>
<path d="M1057 1390 c-162 -41 -249 -228 -175 -380 36 -76 111 -142 140 -124
6 4 8 3 4 -4 -9 -15 94 -35 141 -26 88 16 159 69 201 149 21 40 26 64 26 120
-1 80 -16 124 -64 179 -64 72 -180 109 -273 86z"/>
<path d="M271 794 c0 -11 3 -14 6 -6 3 7 2 16 -1 19 -3 4 -6 -2 -5 -13z"/>
<path d="M830 760 c0 -5 5 -10 10 -10 6 0 10 5 10 10 0 6 -4 10 -10 10 -5 0
-10 -4 -10 -10z"/>
<path d="M900 740 c-9 -6 -10 -10 -3 -10 6 0 15 5 18 10 8 12 4 12 -15 0z"/>
<path d="M960 710 c14 -4 19 -8 11 -9 -8 -1 -12 -3 -9 -6 3 -3 13 -3 22 1 23
9 9 24 -22 23 l-27 -1 25 -8z"/>
<path d="M301 684 c0 -11 3 -14 6 -6 3 7 2 16 -1 19 -3 4 -6 -2 -5 -13z"/>
<path d="M1083 693 c-18 -6 -16 -23 1 -23 8 0 17 -6 19 -12 4 -10 8 -10 14 -2
4 6 24 15 43 19 30 7 32 9 15 16 -22 9 -74 10 -92 2z m48 -12 c-8 -5 -20 -7
-28 -4 -21 8 -15 13 15 13 20 0 23 -3 13 -9z"/>
<path d="M42 630 c0 -14 2 -19 5 -12 2 6 2 18 0 25 -3 6 -5 1 -5 -13z"/>
<path d="M1448 293 c6 -2 18 -2 25 0 6 3 1 5 -13 5 -14 0 -19 -2 -12 -5z"/>
<path d="M1368 273 c7 -3 16 -2 19 1 4 3 -2 6 -13 5 -11 0 -14 -3 -6 -6z"/>
</g>
</svg>
