<?xml version="1.0" standalone="no"?>
<!DOCTYPE svg PUBLIC "-//W3C//DTD SVG 20010904//EN"
 "http://www.w3.org/TR/2001/REC-SVG-20010904/DTD/svg10.dtd">
<svg version="1.0" xmlns="http://www.w3.org/2000/svg"
 width="600.000000pt" height="650.000000pt" viewBox="0 0 600.000000 650.000000"
 preserveAspectRatio="xMidYMid meet">

<g transform="translate(0.000000,650.000000) scale(0.100000,-0.100000)"
fill="#000000" stroke="none">
<path d="M2864 5999 c-22 -11 -60 -39 -83 -63 l-44 -44 -39 28 c-127 92 -308
75 -412 -40 -20 -22 -42 -52 -48 -66 -8 -17 -16 -23 -27 -18 -116 51 -210 55
-296 14 -81 -39 -164 -142 -165 -204 0 -16 -5 -17 -37 -10 -69 16 -174 10
-225 -13 -94 -43 -178 -163 -178 -256 l0 -32 -54 3 c-85 6 -155 -20 -219 -78
-70 -64 -100 -130 -103 -225 l-1 -70 -52 -7 c-122 -18 -210 -98 -247 -223 -17
-60 -14 -147 6 -185 9 -16 3 -21 -39 -35 -75 -25 -132 -74 -171 -146 -31 -58
-34 -72 -34 -144 -1 -65 4 -90 24 -129 17 -36 21 -51 11 -54 -30 -10 -99 -72
-128 -116 -73 -108 -70 -239 7 -352 l28 -40 -39 -38 c-21 -21 -51 -64 -66 -95
-57 -115 -26 -274 68 -355 l40 -34 -31 -43 c-87 -120 -75 -294 28 -397 21 -21
53 -45 71 -53 21 -9 30 -19 27 -29 -3 -8 -15 -42 -27 -75 -39 -109 -7 -237 78
-316 44 -40 113 -78 145 -79 15 0 15 -4 1 -47 -52 -170 76 -365 256 -389 l46
-6 0 -71 c1 -172 128 -297 301 -297 l71 0 6 -49 c13 -107 99 -213 199 -247 50
-16 172 -16 210 0 13 6 20 3 24 -10 34 -108 107 -190 196 -220 71 -23 191 -16
244 15 24 15 40 19 42 12 2 -6 18 -33 35 -59 57 -84 191 -143 290 -127 52 9
138 48 162 75 18 20 18 20 52 -19 18 -22 61 -53 95 -70 52 -27 72 -31 137 -31
92 0 158 27 221 90 l41 41 47 -31 c65 -43 142 -64 206 -56 101 13 202 80 240
159 l16 36 53 -24 c75 -35 187 -35 262 0 80 38 164 144 165 209 0 15 4 17 28
10 15 -5 65 -9 112 -9 71 0 93 4 133 25 87 44 150 134 163 233 l6 45 82 4 c96
4 142 24 204 85 59 60 84 121 85 210 l2 71 45 7 c135 20 242 126 263 261 6 38
-3 116 -18 154 -4 12 5 19 38 27 96 26 185 126 206 231 14 71 7 131 -24 192
l-22 46 56 36 c85 55 140 157 141 260 0 49 -25 123 -61 176 l-30 44 42 40
c122 119 125 304 7 433 l-51 56 21 22 c12 12 31 44 42 70 63 142 16 296 -116
385 l-50 34 25 51 c20 40 25 66 25 121 0 138 -80 248 -209 293 -42 14 -43 16
-33 41 6 15 11 59 11 97 0 86 -26 151 -86 213 -53 55 -106 82 -171 89 l-52 5
0 72 c0 84 -23 143 -80 206 -60 66 -124 94 -215 95 l-77 0 -5 46 c-12 99 -82
195 -175 239 -51 25 -155 32 -224 16 -32 -7 -38 -6 -38 8 0 29 -48 113 -84
148 -81 79 -203 107 -306 71 -30 -11 -63 -23 -72 -27 -13 -6 -21 1 -37 32 -42
82 -139 142 -241 150 -81 5 -134 -9 -200 -53 l-51 -34 -36 40 c-61 67 -116 89
-225 89 -71 -1 -102 -6 -134 -21z m234 -73 c55 -29 100 -84 123 -154 l22 -66
21 40 c91 169 272 205 387 77 39 -43 53 -78 64 -157 l7 -49 49 51 c59 62 94
81 158 89 57 7 105 -7 160 -47 62 -46 86 -99 86 -197 0 -91 -6 -88 77 -29 81
58 171 59 256 3 86 -58 118 -152 88 -259 -9 -34 -15 -62 -13 -64 2 -2 28 8 58
23 81 39 146 42 214 8 64 -31 101 -74 121 -142 18 -58 11 -109 -22 -175 -13
-26 -24 -52 -24 -57 0 -6 19 -4 48 4 143 44 268 -17 307 -150 21 -69 6 -136
-46 -209 l-40 -56 73 0 c153 0 252 -89 252 -225 -1 -76 -20 -115 -91 -181
l-55 -51 63 -7 c78 -9 127 -34 172 -87 95 -111 63 -261 -73 -344 l-63 -38 68
-25 c89 -33 139 -82 160 -156 18 -61 13 -109 -16 -168 -31 -60 -86 -98 -199
-135 -10 -3 -2 -12 25 -28 106 -61 148 -123 149 -220 0 -65 -23 -122 -66 -162
-31 -30 -106 -62 -143 -63 -16 0 -40 -3 -51 -6 -19 -5 -17 -10 28 -52 66 -62
92 -113 92 -182 0 -139 -129 -245 -274 -225 -27 4 -50 4 -50 0 0 -4 13 -24 29
-44 46 -58 64 -102 65 -156 0 -62 -17 -109 -58 -153 -65 -70 -142 -92 -236
-68 -35 9 -65 15 -67 13 -2 -2 9 -31 24 -63 100 -217 -102 -413 -316 -305 -33
17 -61 27 -61 23 0 -5 7 -31 15 -58 28 -93 11 -172 -52 -236 -80 -82 -198 -91
-300 -22 -32 21 -61 40 -64 42 -3 1 -3 -24 -1 -57 10 -145 -89 -262 -223 -263
-71 -1 -133 30 -189 94 l-44 51 -7 -49 c-16 -127 -71 -201 -168 -229 -49 -14
-66 -15 -107 -5 -68 16 -124 60 -161 125 -17 30 -32 55 -34 55 -2 0 -15 -31
-30 -70 -86 -225 -366 -214 -439 16 -16 51 -20 57 -30 40 -50 -82 -85 -122
-130 -145 -115 -59 -261 -8 -309 109 -8 19 -18 61 -22 93 l-7 59 -51 -56 c-29
-30 -70 -62 -91 -71 -98 -41 -217 -6 -275 81 -36 54 -44 91 -39 168 1 31 0 56
-4 56 -3 0 -19 -11 -35 -24 -85 -71 -180 -85 -270 -41 -104 52 -146 163 -108
288 8 26 10 47 6 47 -5 0 -34 -12 -66 -26 -103 -47 -203 -28 -274 52 -68 78
-77 164 -25 266 14 27 23 52 21 54 -2 3 -32 -3 -66 -12 -105 -30 -202 6 -262
97 -55 80 -46 183 22 269 22 27 39 52 39 55 0 4 -24 3 -54 0 -178 -23 -315
132 -261 295 12 38 32 66 71 103 58 55 57 66 -6 67 -41 1 -115 32 -149 63 -13
12 -34 45 -47 72 -55 116 -10 229 119 304 44 25 49 31 32 36 -158 52 -219 119
-220 240 0 104 63 183 177 221 27 8 48 19 48 22 0 4 -29 25 -63 47 -130 84
-154 233 -56 340 48 52 86 71 162 80 31 4 57 10 57 14 0 4 -21 24 -46 45 -63
53 -99 130 -91 196 16 133 112 213 249 209 38 -1 68 2 68 7 1 5 -10 23 -23 39
-87 109 -83 239 10 327 59 57 138 71 241 44 39 -11 52 -11 48 -3 -63 145 -67
168 -35 251 22 61 60 98 128 129 57 25 129 19 201 -18 28 -14 54 -25 56 -23 2
2 -3 26 -11 53 -31 101 -14 177 54 245 87 87 200 90 309 9 l52 -40 0 67 c0 37
5 84 12 105 27 91 135 166 227 157 65 -6 113 -32 170 -90 l49 -51 7 54 c14
104 60 174 140 210 109 50 236 -1 301 -122 l28 -50 21 59 c35 96 83 147 163
173 37 12 124 4 160 -15z"/>
<path d="M2943 5788 c-30 -34 -34 -55 -19 -92 18 -44 64 -63 106 -46 36 15 50
37 50 80 0 69 -92 107 -137 58z"/>
<path d="M2455 5735 c-69 -68 18 -172 104 -125 31 16 46 65 31 100 -23 56 -92
69 -135 25z"/>
<path d="M3431 5743 c-33 -27 -38 -82 -11 -116 45 -58 150 -21 150 53 0 66
-87 105 -139 63z"/>
<path d="M1991 5603 c-12 -10 -24 -35 -28 -55 -5 -32 -1 -41 25 -68 39 -39 74
-39 113 -1 32 33 36 58 14 100 -23 45 -84 56 -124 24z"/>
<path d="M3895 5595 c-35 -34 -33 -78 5 -117 26 -25 36 -29 63 -24 36 7 77 47
77 77 0 28 -26 75 -45 83 -35 13 -76 6 -100 -19z"/>
<path d="M1555 5365 c-54 -53 -12 -145 66 -145 11 0 34 14 51 30 25 26 29 36
24 63 -13 70 -94 100 -141 52z"/>
<path d="M4342 5383 c-17 -6 -42 -57 -42 -83 0 -29 53 -80 83 -80 34 0 74 34
82 69 7 33 -15 85 -40 95 -19 7 -64 7 -83 -1z"/>
<path d="M2870 5333 c-32 -12 -50 -37 -50 -69 0 -40 25 -66 81 -83 45 -14 59
-35 36 -58 -20 -20 -63 -10 -70 17 -6 24 -42 27 -51 4 -23 -61 107 -100 158
-48 45 44 22 106 -49 131 -57 19 -71 36 -50 57 22 22 42 20 55 -4 11 -21 44
-27 55 -10 25 41 -56 85 -115 63z"/>
<path d="M2660 5309 c-25 -4 -59 -11 -76 -14 -26 -4 -31 -9 -27 -25 3 -11 12
-20 19 -20 8 0 14 -2 14 -4 0 -2 7 -40 15 -83 8 -43 15 -79 15 -80 0 -2 -7 -3
-15 -3 -17 0 -20 -26 -4 -36 11 -7 159 13 176 24 6 4 8 22 6 40 -4 27 -9 33
-27 30 -13 -2 -20 -9 -18 -19 1 -11 -8 -18 -29 -23 -40 -8 -49 -1 -49 33 0 25
5 30 36 35 26 5 34 12 32 24 -3 13 -12 16 -41 14 -32 -2 -37 0 -43 24 -7 29 7
44 44 44 13 0 22 -6 22 -15 0 -15 35 -21 43 -7 3 4 2 22 0 40 -6 35 -12 37
-93 21z"/>
<path d="M3417 5293 c-11 -10 -8 -41 4 -45 19 -6 -22 -158 -42 -158 -9 0 -19
-9 -22 -20 -10 -39 153 -66 212 -35 54 28 79 125 44 175 -25 36 -41 47 -103
65 -82 25 -86 26 -93 18z m108 -67 c54 -23 69 -70 40 -126 -11 -20 -25 -31
-49 -36 -45 -8 -78 3 -72 24 2 9 12 47 22 85 9 37 19 67 21 67 2 0 19 -6 38
-14z"/>
<path d="M2443 5262 c-57 -16 -62 -22 -38 -46 14 -14 14 -20 -6 -58 l-22 -43
-10 29 c-7 20 -6 35 1 47 7 10 9 25 6 34 -7 18 -1 18 -57 -1 -49 -17 -63 -42
-28 -51 26 -7 74 -154 54 -166 -15 -9 -16 -17 -5 -34 13 -21 96 9 100 36 3 15
-2 21 -16 21 -26 0 -33 20 -18 48 12 22 12 22 64 -22 48 -42 55 -44 83 -34 20
7 28 15 25 25 -3 8 -6 17 -6 19 0 2 -10 4 -21 4 -12 0 -41 16 -65 36 l-44 35
21 42 c12 23 28 46 35 50 15 9 19 33 7 40 -5 2 -32 -2 -60 -11z"/>
<path d="M3156 5214 c-32 -31 -11 -84 32 -84 35 0 52 16 52 50 0 14 -5 31 -12
38 -17 17 -54 15 -72 -4z"/>
<path d="M3707 5190 c-3 -13 0 -20 10 -20 8 0 13 -3 11 -8 -1 -4 -16 -40 -32
-80 -21 -50 -34 -72 -47 -72 -14 0 -36 -29 -27 -35 9 -5 155 -65 166 -67 7 -2
19 12 27 29 13 30 12 34 -5 43 -14 8 -21 6 -27 -5 -7 -13 -15 -13 -41 -4 -18
6 -32 12 -32 13 0 2 5 17 11 34 l11 32 36 -15 c28 -12 37 -13 44 -3 12 20 10
23 -26 41 -27 12 -33 20 -29 37 8 29 20 34 52 20 20 -8 27 -17 24 -29 -3 -13
2 -20 17 -24 17 -4 24 0 31 21 5 15 9 32 8 37 -1 10 -143 74 -165 75 -7 0 -14
-9 -17 -20z"/>
<path d="M2087 5129 c-52 -26 -57 -31 -47 -49 6 -11 15 -18 20 -15 12 7 18
-17 25 -102 3 -45 2 -74 -5 -78 -7 -4 -7 -12 0 -26 11 -19 11 -19 53 2 52 27
49 23 41 43 -4 11 -13 15 -25 11 -15 -5 -19 -1 -19 15 0 27 77 65 97 48 9 -7
10 -14 3 -23 -9 -11 -5 -45 6 -45 2 0 24 10 48 22 38 18 43 24 35 40 -5 10
-16 18 -23 18 -19 0 -137 123 -125 130 12 8 1 40 -15 39 -6 -1 -37 -14 -69
-30z m77 -116 c-32 -24 -44 -16 -44 29 l0 42 30 -29 c29 -27 30 -31 14 -42z"/>
<path d="M1189 5067 c-21 -16 -39 -51 -39 -77 0 -30 53 -80 85 -80 32 0 85 50
85 80 0 49 -38 89 -85 89 -16 0 -37 -5 -46 -12z"/>
<path d="M3937 5062 c-26 -29 -21 -74 13 -117 35 -44 35 -68 2 -73 -32 -5 -53
15 -46 42 6 27 -16 49 -40 40 -22 -9 -20 -56 4 -87 43 -54 127 -56 151 -3 15
31 6 67 -26 104 -32 39 -33 72 -2 72 29 0 47 -18 40 -38 -9 -21 26 -45 44 -31
21 18 15 48 -16 80 -36 35 -97 41 -124 11z"/>
<path d="M4705 5055 c-17 -16 -25 -35 -25 -57 1 -106 145 -116 166 -12 4 24 0
37 -21 62 -34 41 -84 44 -120 7z"/>
<path d="M1863 5005 c-45 -19 -73 -69 -73 -129 0 -43 4 -53 39 -87 33 -33 45
-39 81 -39 72 0 125 35 144 96 5 16 2 23 -13 27 -15 4 -25 -4 -40 -29 -26 -43
-64 -59 -102 -44 -68 28 -86 103 -35 146 28 25 56 31 56 13 0 -18 45 -5 48 14
9 44 -43 59 -105 32z"/>
<path d="M4149 4974 c-10 -13 -10 -17 0 -24 19 -11 -78 -151 -100 -144 -9 2
-21 -2 -27 -9 -9 -10 4 -25 59 -66 38 -28 75 -54 82 -57 10 -4 47 42 47 59 0
11 -34 16 -45 7 -10 -8 -20 -5 -39 12 -26 23 -26 23 -7 48 l20 25 29 -22 c27
-20 31 -21 43 -6 11 13 9 19 -15 38 -29 23 -29 24 -12 50 l17 26 30 -22 c22
-15 27 -24 20 -33 -7 -9 -7 -16 1 -24 19 -19 32 -14 51 17 l17 29 -67 49 c-91
66 -89 65 -104 47z"/>
<path d="M1596 4794 c-31 -25 -56 -48 -56 -53 0 -15 24 -30 34 -22 7 6 32 -14
70 -56 46 -51 56 -67 45 -74 -12 -7 -11 -11 3 -26 17 -16 20 -15 58 22 31 30
37 41 28 52 -6 8 -18 11 -26 8 -8 -3 -21 0 -28 6 -12 9 -9 17 16 46 32 36 37
61 18 96 -33 63 -86 63 -162 1z m112 -16 c17 -17 15 -38 -5 -60 -22 -24 -28
-23 -53 12 -18 25 -19 34 -10 45 15 18 52 19 68 3z"/>
<path d="M4352 4818 c-7 -7 -8 -16 -3 -22 14 -17 -98 -140 -114 -126 -9 7 -16
6 -25 -5 -12 -14 -8 -22 23 -52 30 -31 38 -35 52 -23 10 9 12 16 5 25 -13 16
20 47 39 36 10 -7 10 -18 -3 -61 -15 -49 -15 -55 1 -72 9 -10 22 -18 30 -18
18 0 29 28 16 41 -7 7 -7 21 -1 43 9 27 16 33 40 34 53 1 86 50 67 100 -11 30
-87 112 -104 112 -6 0 -16 -5 -23 -12z m88 -124 c0 -21 -29 -37 -55 -30 -36 9
-42 33 -14 62 l23 24 23 -22 c13 -12 23 -27 23 -34z"/>
<path d="M2911 4812 c-18 -13 -5 -32 20 -32 32 0 59 -19 59 -40 0 -29 -33 -57
-82 -71 -58 -17 -77 -35 -84 -80 -6 -33 -10 -38 -40 -44 -55 -10 -87 -44 -87
-94 0 -94 76 -126 308 -126 175 0 225 9 275 51 49 42 38 106 -23 127 -15 6
-16 10 -7 28 32 59 -28 139 -105 139 -37 0 -42 3 -38 18 8 31 -23 89 -57 107
-38 20 -120 29 -139 17z"/>
<path d="M865 4674 c-32 -34 -32 -75 -1 -110 53 -63 155 -16 142 65 -11 71
-93 97 -141 45z"/>
<path d="M1460 4664 c-24 -28 -29 -39 -19 -50 6 -8 21 -12 33 -9 27 7 116 -76
116 -109 0 -28 -18 -46 -46 -46 -32 0 -126 78 -119 100 3 9 -2 23 -11 31 -14
11 -20 8 -49 -27 -24 -29 -30 -42 -23 -52 6 -7 19 -10 29 -7 12 4 32 -7 61
-33 81 -74 121 -81 174 -28 54 54 48 87 -28 160 -38 36 -62 66 -60 76 6 33
-26 30 -58 -6z"/>
<path d="M5015 4675 c-51 -50 -14 -139 58 -139 66 0 103 63 73 122 -26 50 -91
58 -131 17z"/>
<path d="M4528 4636 c-31 -24 -35 -38 -15 -55 10 -8 17 -7 25 1 9 9 16 9 27
-3 14 -14 11 -19 -32 -55 -84 -69 -82 -67 -96 -55 -11 8 -18 7 -30 -7 -14 -16
-13 -20 20 -55 36 -40 70 -45 59 -9 -5 14 10 32 59 71 55 45 68 51 80 41 14
-11 14 -15 1 -29 -12 -13 -12 -19 -2 -33 12 -16 15 -15 45 10 l32 27 -66 80
c-37 44 -70 83 -73 87 -4 3 -19 -3 -34 -16z"/>
<path d="M1280 4423 c-35 -24 -48 -43 -60 -84 -36 -127 122 -221 218 -130 49
45 66 147 23 139 -10 -2 -18 -18 -22 -43 -8 -47 -47 -85 -89 -85 -39 0 -90 49
-90 87 0 42 26 74 57 71 33 -4 53 23 34 46 -17 21 -40 20 -71 -1z"/>
<path d="M4659 4389 c-18 -18 -19 -28 -13 -88 5 -58 4 -69 -10 -74 -10 -4 -24
1 -36 13 -21 21 -27 50 -10 50 6 0 10 12 10 26 0 22 -4 25 -27 22 -26 -3 -28
-7 -31 -51 -3 -41 1 -51 27 -77 36 -36 81 -40 112 -9 19 19 21 29 15 84 -5 51
-3 65 10 76 14 11 19 10 36 -10 13 -17 16 -27 8 -35 -5 -5 -10 -20 -10 -33 0
-34 47 -33 56 2 22 86 -78 163 -137 104z"/>
<path d="M2744 4285 c-8 -21 42 -203 63 -227 23 -26 107 -58 172 -64 72 -8
185 23 219 59 27 29 89 224 75 238 -7 7 -32 3 -74 -11 -42 -15 -99 -24 -164
-27 -97 -4 -139 2 -262 42 -17 5 -25 3 -29 -10z"/>
<path d="M652 4263 c-16 -6 -42 -56 -42 -81 0 -30 37 -70 71 -77 79 -17 128
86 69 145 -19 19 -67 26 -98 13z"/>
<path d="M5245 4245 c-73 -72 27 -188 108 -125 33 26 43 70 23 108 -26 50 -91
58 -131 17z"/>
<path d="M495 3775 c-29 -28 -32 -70 -9 -103 56 -80 181 -11 144 78 -23 56
-92 69 -135 25z"/>
<path d="M5393 3785 c-27 -19 -39 -75 -23 -105 14 -27 63 -48 96 -42 32 6 64
48 64 84 0 63 -83 101 -137 63z"/>
<path d="M1048 3758 c-17 -12 -18 -46 -18 -448 -1 -405 1 -436 17 -448 14 -10
61 -13 208 -10 211 5 234 10 305 74 55 50 74 105 68 201 -5 84 -30 140 -82
180 l-24 20 30 29 c66 61 87 176 49 259 -21 47 -88 110 -140 133 -49 22 -387
30 -413 10z m364 -175 c17 -18 22 -34 22 -79 1 -49 -2 -59 -27 -80 -25 -21
-37 -24 -118 -24 l-89 0 0 106 0 106 95 -4 c82 -3 97 -6 117 -25z m-13 -357
c32 -17 51 -54 51 -101 0 -89 -40 -117 -163 -113 l-82 3 -3 99 c-1 55 0 106 2
113 8 19 158 18 195 -1z"/>
<path d="M1220 3580 c0 -5 5 -10 10 -10 6 0 10 5 10 10 0 6 -4 10 -10 10 -5 0
-10 -4 -10 -10z"/>
<path d="M1255 3570 c-18 -19 -17 -20 2 -20 11 0 28 9 38 20 18 19 17 20 -2
20 -11 0 -28 -9 -38 -20z"/>
<path d="M1311 3566 c-36 -38 -5 -45 32 -7 28 28 30 31 11 31 -11 0 -31 -11
-43 -24z"/>
<path d="M1356 3550 c-45 -54 -29 -70 19 -20 20 21 26 33 18 41 -7 7 -18 1
-37 -21z"/>
<path d="M1376 3501 c-22 -23 -36 -44 -33 -48 10 -9 80 62 76 76 -3 7 -22 -6
-43 -28z"/>
<path d="M1385 3450 c-26 -27 -26 -40 1 -22 11 7 38 52 31 52 -2 0 -16 -13
-32 -30z"/>
<path d="M1220 3204 c0 -14 3 -14 15 -4 8 7 15 14 15 16 0 2 -7 4 -15 4 -8 0
-15 -7 -15 -16z"/>
<path d="M1255 3200 c-18 -19 -17 -20 2 -20 11 0 28 9 38 20 18 19 17 20 -2
20 -11 0 -28 -9 -38 -20z"/>
<path d="M1311 3196 c-18 -19 -19 -25 -8 -29 8 -3 27 7 43 24 25 26 26 29 8
29 -11 0 -31 -11 -43 -24z"/>
<path d="M1358 3181 c-23 -21 -30 -33 -22 -40 7 -8 20 -1 43 23 42 43 24 57
-21 17z"/>
<path d="M1382 3137 c-18 -18 -29 -36 -25 -40 7 -8 73 51 73 65 0 16 -17 7
-48 -25z"/>
<path d="M1391 3086 c-18 -19 -32 -39 -29 -46 2 -6 18 5 37 24 18 19 32 39 29
46 -2 6 -18 -5 -37 -24z"/>
<path d="M1952 3750 c-12 -12 -22 -23 -22 -25 0 -2 -54 -184 -120 -404 -66
-221 -120 -414 -120 -430 0 -34 13 -41 84 -41 69 0 92 18 112 88 24 85 26 86
159 87 134 1 134 0 159 -87 20 -71 43 -88 116 -88 60 0 80 11 80 46 0 12 -54
203 -121 425 -81 272 -127 411 -142 427 -17 19 -31 22 -92 22 -58 0 -75 -4
-93 -20z m143 -394 c25 -87 45 -159 45 -162 0 -2 -43 -4 -95 -4 -52 0 -95 1
-95 3 0 4 47 173 76 276 8 29 17 51 20 48 2 -2 25 -75 49 -161z"/>
<path d="M2030 3409 c-7 -11 -9 -24 -5 -27 7 -7 35 25 35 40 0 16 -19 8 -30
-13z"/>
<path d="M2033 3358 c-32 -32 -42 -58 -25 -58 16 0 64 59 60 75 -2 13 -10 9
-35 -17z"/>
<path d="M2042 3307 c-31 -31 -41 -57 -24 -57 4 0 23 16 42 35 23 23 31 38 24
45 -7 7 -21 -1 -42 -23z"/>
<path d="M2052 3255 c-20 -21 -28 -36 -21 -40 12 -8 69 43 69 62 0 21 -12 15
-48 -22z"/>
<path d="M2090 3225 c-10 -12 -10 -15 4 -15 9 0 16 7 16 15 0 8 -2 15 -4 15
-2 0 -9 -7 -16 -15z"/>
<path d="M2500 3750 c-19 -19 -20 -33 -20 -440 0 -407 1 -421 20 -440 15 -15
33 -20 73 -20 80 0 87 12 87 145 0 90 4 116 21 152 11 24 26 43 32 43 7 -1 56
-72 110 -159 110 -178 116 -184 217 -179 106 5 106 6 -59 249 -112 167 -142
218 -139 238 2 14 59 106 127 203 146 212 148 221 52 226 -35 2 -77 -2 -92 -9
-21 -8 -61 -61 -146 -192 l-118 -180 -3 173 c-3 206 -5 210 -89 210 -40 0 -58
-5 -73 -20z"/>
<path d="M3234 3756 c-18 -14 -19 -32 -22 -423 -1 -224 0 -418 3 -430 12 -51
20 -53 260 -53 258 0 255 -1 255 84 0 28 -5 57 -12 64 -8 8 -60 12 -170 12
l-158 0 0 115 0 115 154 0 c171 0 175 1 181 67 3 38 -8 72 -29 85 -6 4 -77 8
-158 8 l-148 0 0 105 0 105 151 0 c84 0 159 5 170 10 15 9 19 22 19 64 0 86 1
86 -256 86 -174 0 -224 -3 -240 -14z"/>
<path d="M3906 3749 c-14 -21 -16 -72 -16 -445 0 -395 1 -422 18 -437 24 -22
110 -23 140 -1 21 15 22 21 22 170 l0 154 29 0 c41 0 63 -24 101 -110 103
-232 102 -230 195 -230 62 0 85 11 85 40 0 9 -34 85 -75 170 l-74 154 38 23
c80 47 129 161 118 274 -12 113 -58 182 -155 227 -54 25 -67 27 -233 30 -175
4 -177 4 -193 -19z m365 -177 c25 -28 29 -40 29 -93 0 -56 -3 -64 -34 -95 -33
-33 -36 -34 -115 -34 l-81 0 0 131 0 131 86 -3 c82 -4 87 -5 115 -37z"/>
<path d="M4104 3573 c-12 -12 -13 -18 -4 -21 7 -3 22 5 33 17 18 18 19 21 5
21 -9 0 -24 -8 -34 -17z"/>
<path d="M4161 3566 c-12 -13 -18 -26 -13 -30 5 -3 22 8 37 24 20 21 24 30 14
30 -9 0 -26 -11 -38 -24z"/>
<path d="M4207 3552 c-30 -31 -34 -42 -14 -42 21 0 62 49 51 60 -7 7 -19 1
-37 -18z"/>
<path d="M4230 3515 c-23 -23 -31 -38 -24 -45 7 -7 21 2 44 25 23 23 31 38 24
45 -7 7 -21 -2 -44 -25z"/>
<path d="M4242 3467 c-18 -18 -32 -42 -32 -52 0 -15 8 -12 40 20 37 36 51 65
32 65 -4 0 -22 -15 -40 -33z"/>
<path d="M4248 3411 c-33 -31 -36 -46 -8 -31 18 10 46 48 38 55 -2 1 -15 -9
-30 -24z"/>
<path d="M4553 3763 c-19 -7 -16 -47 6 -85 10 -18 67 -125 127 -238 l109 -205
5 -183 c6 -207 4 -202 85 -202 81 0 79 -5 85 202 l5 183 46 85 c252 464 248
450 129 450 -86 0 -93 -7 -180 -187 -43 -90 -81 -163 -84 -163 -2 0 -39 71
-81 158 -42 86 -86 165 -98 174 -21 17 -123 24 -154 11z"/>
<path d="M950 3690 c-32 -32 -23 -47 10 -15 17 16 30 30 30 32 0 10 -23 0 -40
-17z"/>
<path d="M1868 3691 c-14 -12 -31 -36 -37 -53 l-12 -33 42 41 c46 46 51 79 7
45z"/>
<path d="M2422 3683 c-18 -17 -32 -40 -32 -50 0 -14 8 -10 36 19 20 19 34 42
32 49 -3 10 -14 4 -36 -18z"/>
<path d="M3157 3679 c-21 -21 -37 -45 -37 -55 0 -14 10 -9 41 23 23 22 39 47
37 54 -3 10 -16 3 -41 -22z"/>
<path d="M3833 3678 c-18 -19 -33 -43 -33 -53 0 -16 6 -14 36 16 20 20 34 44
32 53 -2 14 -9 11 -35 -16z"/>
<path d="M4465 3690 c-32 -35 -3 -45 30 -10 26 27 27 30 8 30 -11 0 -28 -9
-38 -20z"/>
<path d="M2818 3689 c-10 -5 -23 -20 -29 -32 -10 -18 -6 -17 20 7 39 37 42 45
9 25z"/>
<path d="M4972 3693 c-7 -3 -20 -19 -28 -36 l-16 -32 36 34 c44 42 45 49 8 34z"/>
<path d="M961 3646 c-46 -47 -35 -68 12 -24 35 33 47 58 29 58 -4 0 -23 -15
-41 -34z"/>
<path d="M4496 3655 c-26 -40 -18 -51 14 -20 17 16 30 32 30 37 0 17 -29 7
-44 -17z"/>
<path d="M2423 3625 c-18 -18 -33 -41 -33 -51 0 -15 7 -12 36 17 20 20 34 43
32 51 -2 11 -12 6 -35 -17z"/>
<path d="M3156 3611 c-21 -21 -37 -44 -35 -50 3 -7 22 6 43 28 21 21 37 44 35
50 -3 7 -22 -6 -43 -28z"/>
<path d="M3832 3616 c-17 -17 -32 -40 -32 -51 0 -17 6 -14 36 16 47 47 43 80
-4 35z"/>
<path d="M4521 3617 c-18 -19 -29 -37 -23 -41 12 -7 65 49 60 64 -2 6 -18 -5
-37 -23z"/>
<path d="M1838 3592 c-51 -58 -48 -77 3 -26 23 23 39 48 37 56 -2 9 -16 0 -40
-30z"/>
<path d="M4933 3598 c-22 -24 -46 -54 -53 -68 -10 -20 -4 -17 30 15 35 33 79
95 67 95 -1 0 -21 -19 -44 -42z"/>
<path d="M962 3587 c-31 -31 -41 -57 -24 -57 13 0 72 64 72 78 0 20 -14 14
-48 -21z"/>
<path d="M2754 3587 c-34 -37 -74 -93 -74 -103 0 -13 51 40 82 84 37 53 32 63
-8 19z"/>
<path d="M4541 3576 c-18 -19 -30 -39 -26 -45 8 -14 65 44 65 65 0 19 -2 18
-39 -20z"/>
<path d="M2421 3556 c-18 -19 -32 -39 -29 -46 2 -6 18 5 37 24 18 19 32 39 29
46 -2 6 -18 -5 -37 -24z"/>
<path d="M3156 3551 c-21 -21 -37 -44 -35 -50 3 -7 22 6 43 28 21 21 37 44 35
50 -3 7 -22 -6 -43 -28z"/>
<path d="M3425 3570 c-15 -16 -15 -20 -3 -20 8 0 23 9 33 20 15 16 15 20 3 20
-8 0 -23 -9 -33 -20z"/>
<path d="M3485 3570 c-15 -16 -15 -20 -3 -20 8 0 23 9 33 20 15 16 15 20 3 20
-8 0 -23 -9 -33 -20z"/>
<path d="M3545 3570 c-18 -19 -17 -20 1 -20 20 0 44 17 44 32 0 15 -27 8 -45
-12z"/>
<path d="M3605 3570 c-10 -11 -14 -20 -8 -20 5 0 18 9 28 20 10 11 14 20 8 20
-5 0 -18 -9 -28 -20z"/>
<path d="M3831 3546 c-18 -19 -32 -39 -29 -46 2 -6 18 5 37 24 18 19 32 39 29
46 -2 6 -18 -5 -37 -24z"/>
<path d="M4560 3535 c-23 -23 -31 -38 -24 -45 14 -14 76 51 66 68 -6 8 -18 2
-42 -23z"/>
<path d="M962 3527 c-18 -18 -32 -42 -32 -52 0 -16 8 -11 42 22 29 29 39 46
32 53 -7 7 -20 -1 -42 -23z"/>
<path d="M1818 3512 c-50 -52 -61 -88 -13 -42 37 35 60 68 53 76 -3 2 -20 -13
-40 -34z"/>
<path d="M2421 3497 c-18 -20 -32 -40 -29 -47 5 -17 70 46 66 65 -2 13 -10 9
-37 -18z"/>
<path d="M3157 3492 c-34 -35 -47 -62 -29 -62 13 0 72 70 72 85 0 21 -1 20
-43 -23z"/>
<path d="M4580 3495 c-23 -23 -31 -38 -24 -45 14 -14 76 51 66 68 -6 8 -18 2
-42 -23z"/>
<path d="M3832 3487 c-39 -40 -44 -65 -9 -42 25 16 54 61 45 70 -2 3 -19 -10
-36 -28z"/>
<path d="M4891 3496 c-14 -15 -18 -26 -12 -30 6 -4 17 7 26 24 19 36 16 38
-14 6z"/>
<path d="M962 3463 c-42 -48 -43 -78 -1 -37 36 34 52 61 41 68 -4 2 -22 -12
-40 -31z"/>
<path d="M4600 3455 c-23 -23 -31 -38 -24 -45 7 -7 21 2 44 25 23 23 31 38 24
45 -7 7 -21 -2 -44 -25z"/>
<path d="M2423 3438 c-32 -32 -42 -58 -25 -58 16 0 64 59 60 75 -2 13 -10 9
-35 -17z"/>
<path d="M1786 3420 c-43 -48 -52 -88 -10 -49 27 25 59 78 51 85 -2 3 -21 -14
-41 -36z"/>
<path d="M3152 3427 c-18 -18 -32 -42 -32 -52 0 -15 8 -12 40 20 37 36 51 65
32 65 -4 0 -22 -15 -40 -33z"/>
<path d="M3833 3428 c-18 -19 -33 -43 -33 -53 0 -16 6 -14 36 16 20 20 34 44
32 53 -2 14 -9 11 -35 -16z"/>
<path d="M4620 3415 c-23 -23 -31 -38 -24 -45 7 -7 21 2 44 25 23 23 31 38 24
45 -7 7 -21 -2 -44 -25z"/>
<path d="M966 3401 c-21 -21 -37 -44 -35 -50 3 -7 22 6 43 28 21 21 37 44 35
50 -3 7 -22 -6 -43 -28z"/>
<path d="M2423 3378 c-18 -19 -33 -43 -33 -53 0 -16 6 -14 36 16 20 20 34 44
32 53 -2 14 -9 11 -35 -16z"/>
<path d="M3152 3367 c-18 -18 -32 -42 -32 -52 0 -15 8 -12 40 20 37 36 51 65
32 65 -4 0 -22 -15 -40 -33z"/>
<path d="M3833 3368 c-18 -19 -33 -43 -33 -53 0 -16 6 -14 36 16 20 20 34 44
32 53 -2 14 -9 11 -35 -16z"/>
<path d="M4645 3373 c-39 -43 -31 -63 10 -23 19 19 35 38 35 42 0 16 -20 7
-45 -19z"/>
<path d="M962 3337 c-36 -37 -44 -64 -13 -48 22 12 54 58 49 72 -2 5 -18 -5
-36 -24z"/>
<path d="M1763 3337 c-17 -17 -34 -43 -38 -57 -7 -24 -5 -23 29 9 33 32 53 67
44 77 -3 2 -18 -11 -35 -29z"/>
<path d="M4671 3336 c-18 -19 -32 -39 -29 -46 2 -6 18 5 37 24 18 19 32 39 29
46 -2 6 -18 -5 -37 -24z"/>
<path d="M2423 3318 c-18 -19 -33 -43 -33 -53 0 -16 6 -14 36 16 20 20 34 44
32 53 -2 14 -9 11 -35 -16z"/>
<path d="M3157 3304 c-20 -20 -37 -44 -37 -52 0 -11 13 -3 41 25 23 22 40 46
38 52 -2 6 -21 -5 -42 -25z"/>
<path d="M3827 3302 c-15 -15 -27 -37 -27 -47 0 -16 6 -13 35 15 33 32 45 60
27 60 -5 0 -20 -13 -35 -28z"/>
<path d="M474 3310 c-12 -5 -29 -19 -38 -32 -48 -69 27 -153 109 -122 19 8 45
55 45 83 0 46 -70 89 -116 71z"/>
<path d="M4687 3292 c-26 -27 -35 -52 -19 -52 14 0 73 66 66 73 -12 12 -19 8
-47 -21z"/>
<path d="M5464 3310 c-55 -21 -70 -94 -29 -135 58 -59 158 -5 140 75 -11 48
-65 78 -111 60z"/>
<path d="M962 3277 c-31 -31 -41 -57 -24 -57 13 0 72 64 72 78 0 20 -14 14
-48 -21z"/>
<path d="M2423 3258 c-18 -19 -33 -43 -33 -53 0 -16 6 -14 36 16 20 20 34 44
32 53 -2 14 -9 11 -35 -16z"/>
<path d="M4712 3257 c-31 -31 -41 -57 -24 -57 17 0 71 65 64 78 -6 8 -17 3
-40 -21z"/>
<path d="M1745 3258 c-29 -32 -55 -72 -55 -83 0 -15 78 65 83 86 7 25 -4 24
-28 -3z"/>
<path d="M3156 3241 c-21 -22 -37 -44 -34 -51 4 -14 78 58 78 77 0 18 -1 18
-44 -26z"/>
<path d="M3831 3236 c-18 -19 -32 -39 -29 -46 2 -6 18 5 37 24 18 19 32 39 29
46 -2 6 -18 -5 -37 -24z"/>
<path d="M961 3215 c-47 -54 -40 -78 9 -30 38 37 51 65 31 65 -5 0 -23 -16
-40 -35z"/>
<path d="M4727 3212 c-15 -15 -27 -37 -27 -47 0 -16 6 -13 35 15 33 32 45 60
27 60 -5 0 -20 -13 -35 -28z"/>
<path d="M2418 3188 c-41 -48 -35 -69 7 -28 32 31 46 60 28 60 -5 0 -20 -15
-35 -32z"/>
<path d="M3157 3182 c-35 -36 -47 -62 -28 -62 14 0 71 69 71 85 0 21 -1 20
-43 -23z"/>
<path d="M3425 3200 c-15 -16 -15 -20 -3 -20 8 0 23 9 33 20 15 16 15 20 3 20
-8 0 -23 -9 -33 -20z"/>
<path d="M3484 3203 c-12 -12 -13 -18 -4 -21 7 -3 22 5 33 17 18 18 19 21 5
21 -9 0 -24 -8 -34 -17z"/>
<path d="M3545 3200 c-12 -13 -14 -20 -6 -20 7 0 24 9 38 20 23 18 24 20 6 20
-11 0 -28 -9 -38 -20z"/>
<path d="M3605 3200 c-16 -17 -16 -20 -3 -15 9 4 19 13 22 21 7 19 2 18 -19
-6z"/>
<path d="M3831 3177 c-44 -46 -37 -71 8 -31 20 18 32 37 30 48 -3 14 -10 11
-38 -17z"/>
<path d="M1707 3154 c-22 -24 -37 -48 -35 -55 5 -14 78 66 78 86 0 19 1 20
-43 -31z"/>
<path d="M963 3152 c-47 -54 -41 -76 7 -25 38 40 50 63 33 63 -5 0 -23 -17
-40 -38z"/>
<path d="M4737 3154 c-36 -38 -45 -54 -29 -54 15 0 74 68 70 81 -2 7 -19 -4
-41 -27z"/>
<path d="M2701 3152 c-7 -13 -11 -26 -8 -28 8 -8 29 25 25 38 -3 8 -9 4 -17
-10z"/>
<path d="M2421 3126 c-18 -19 -32 -39 -29 -46 2 -6 18 5 37 24 18 19 32 39 29
46 -2 6 -18 -5 -37 -24z"/>
<path d="M3158 3123 c-21 -22 -38 -48 -38 -58 0 -16 8 -12 41 21 24 24 39 49
37 58 -2 14 -11 9 -40 -21z"/>
<path d="M4107 3142 c-10 -10 -17 -27 -17 -37 0 -17 1 -17 21 1 11 10 25 27
30 36 13 25 -12 24 -34 0z"/>
<path d="M3833 3118 c-18 -19 -33 -43 -33 -53 0 -16 6 -14 36 16 20 20 34 44
32 53 -2 14 -9 11 -35 -16z"/>
<path d="M967 3092 c-45 -46 -51 -79 -6 -36 32 30 54 63 47 70 -3 2 -21 -13
-41 -34z"/>
<path d="M2705 3100 c-15 -15 -26 -33 -24 -39 5 -12 16 -5 47 31 32 36 12 44
-23 8z"/>
<path d="M4120 3095 c-23 -23 -31 -38 -24 -45 14 -14 76 51 66 68 -6 8 -18 2
-42 -23z"/>
<path d="M4736 3091 c-21 -22 -36 -45 -34 -51 5 -15 71 52 74 75 3 20 3 20
-40 -24z"/>
<path d="M1688 3073 c-36 -39 -59 -81 -36 -66 27 16 89 103 75 103 -2 0 -19
-17 -39 -37z"/>
<path d="M2423 3068 c-32 -32 -42 -58 -25 -58 16 0 64 59 60 75 -2 13 -10 9
-35 -17z"/>
<path d="M2727 3062 c-26 -27 -35 -52 -19 -52 11 0 62 57 62 69 0 18 -15 12
-43 -17z"/>
<path d="M3152 3057 c-18 -18 -32 -42 -32 -52 0 -15 8 -12 40 20 37 36 51 65
32 65 -4 0 -22 -15 -40 -33z"/>
<path d="M3833 3058 c-18 -19 -33 -43 -33 -53 0 -16 6 -14 36 16 20 20 34 44
32 53 -2 14 -9 11 -35 -16z"/>
<path d="M4142 3057 c-31 -31 -41 -57 -24 -57 17 0 71 65 64 78 -6 8 -17 3
-40 -21z"/>
<path d="M967 3032 c-35 -36 -47 -62 -29 -62 14 0 59 53 67 78 9 30 5 28 -38
-16z"/>
<path d="M4738 3033 c-36 -37 -48 -63 -30 -63 17 0 74 69 70 85 -2 12 -11 8
-40 -22z"/>
<path d="M2746 3021 c-41 -43 -23 -61 20 -20 18 18 31 36 28 41 -9 14 -19 9
-48 -21z"/>
<path d="M2428 3013 c-27 -28 -36 -53 -20 -53 16 0 54 48 50 65 -2 13 -8 11
-30 -12z"/>
<path d="M4157 3012 c-26 -27 -35 -52 -19 -52 12 0 62 54 62 68 0 19 -14 14
-43 -16z"/>
<path d="M3152 2997 c-18 -18 -32 -42 -32 -52 0 -15 8 -12 40 20 37 36 51 65
32 65 -4 0 -22 -15 -40 -33z"/>
<path d="M1658 2982 c-20 -20 -39 -48 -43 -62 -7 -23 -5 -23 30 10 33 32 61
77 52 86 -2 2 -19 -13 -39 -34z"/>
<path d="M2770 2985 c-23 -23 -31 -38 -24 -45 7 -7 21 2 44 25 23 23 31 38 24
45 -7 7 -21 -2 -44 -25z"/>
<path d="M3828 2992 c-16 -15 -28 -36 -28 -47 0 -16 5 -14 35 15 32 31 46 61
28 59 -5 0 -20 -12 -35 -27z"/>
<path d="M1920 2990 c-12 -23 -3 -25 23 -6 21 16 22 26 2 26 -8 0 -19 -9 -25
-20z"/>
<path d="M1977 2992 c-21 -22 -21 -32 -4 -32 14 0 47 31 47 43 0 14 -27 7 -43
-11z"/>
<path d="M2037 2992 c-36 -39 -3 -46 33 -7 23 24 23 25 3 25 -11 0 -27 -8 -36
-18z"/>
<path d="M2091 2986 c-36 -38 -5 -45 32 -7 28 28 30 31 11 31 -11 0 -31 -11
-43 -24z"/>
<path d="M962 2967 c-18 -18 -32 -41 -32 -52 0 -16 6 -14 34 14 32 31 53 71
37 71 -4 0 -21 -15 -39 -33z"/>
<path d="M2133 2968 c-18 -19 -33 -43 -33 -53 0 -16 6 -14 36 16 20 20 34 44
32 53 -2 14 -9 11 -35 -16z"/>
<path d="M4177 2972 c-26 -27 -35 -52 -19 -52 12 0 62 54 62 68 0 19 -14 14
-43 -16z"/>
<path d="M4731 2965 c-31 -36 -39 -55 -22 -55 11 0 71 67 71 80 0 19 -18 10
-49 -25z"/>
<path d="M2438 2963 c-10 -11 -18 -28 -18 -39 0 -17 1 -17 21 3 12 11 19 28
17 38 -3 16 -4 16 -20 -2z"/>
<path d="M2802 2952 c-31 -32 -40 -52 -24 -52 15 0 64 58 60 71 -3 9 -15 2
-36 -19z"/>
<path d="M3157 2942 c-26 -27 -35 -52 -19 -52 12 0 62 54 62 68 0 19 -14 14
-43 -16z"/>
<path d="M3831 2926 c-18 -19 -32 -39 -29 -46 2 -6 18 5 37 24 18 19 32 39 29
46 -2 6 -18 -5 -37 -24z"/>
<path d="M4198 2927 c-41 -47 -35 -68 7 -27 32 31 46 61 28 59 -5 0 -20 -14
-35 -32z"/>
<path d="M963 2907 c-18 -18 -33 -42 -33 -53 0 -15 8 -11 40 23 60 63 53 90
-7 30z"/>
<path d="M2143 2914 c-30 -23 -44 -54 -25 -54 10 0 72 63 72 73 0 13 -15 7
-47 -19z"/>
<path d="M2820 2905 c-19 -19 -30 -38 -26 -42 3 -4 23 9 42 29 20 19 32 38 27
41 -6 4 -25 -9 -43 -28z"/>
<path d="M4731 2905 c-30 -35 -39 -55 -23 -55 13 0 72 64 72 78 0 21 -17 13
-49 -23z"/>
<path d="M1628 2891 c-37 -40 -47 -61 -30 -61 17 0 74 69 70 85 -2 14 -11 9
-40 -24z"/>
<path d="M2435 2893 c-11 -14 -26 -33 -34 -40 -7 -8 -10 -17 -7 -20 11 -11 76
61 68 74 -6 9 -14 5 -27 -14z"/>
<path d="M4221 2886 c-18 -19 -32 -39 -29 -46 2 -6 18 5 37 24 18 19 32 39 29
46 -2 6 -18 -5 -37 -24z"/>
<path d="M3156 2872 c-21 -22 -34 -42 -28 -45 12 -8 75 58 71 72 -3 7 -21 -6
-43 -27z"/>
<path d="M2161 2866 c-18 -19 -32 -39 -29 -46 2 -6 18 5 37 24 18 19 32 39 29
46 -2 6 -18 -5 -37 -24z"/>
<path d="M2841 2866 c-22 -23 -29 -36 -21 -41 13 -8 70 42 70 62 0 21 -14 15
-49 -21z"/>
<path d="M3830 2865 c-23 -24 -31 -38 -24 -45 10 -10 44 20 67 57 17 28 -13
19 -43 -12z"/>
<path d="M970 2855 c-23 -23 -31 -38 -24 -45 14 -14 76 51 66 68 -6 8 -18 2
-42 -23z"/>
<path d="M4742 2847 c-18 -18 -29 -36 -25 -40 7 -8 73 51 73 65 0 16 -17 7
-48 -25z"/>
<path d="M1638 2841 c-27 -27 -36 -51 -20 -51 5 0 21 14 37 30 38 40 21 60
-17 21z"/>
<path d="M2441 2836 c-18 -19 -29 -36 -23 -39 5 -4 23 9 41 27 18 19 29 36 23
39 -5 4 -23 -9 -41 -27z"/>
<path d="M2877 2842 c-30 -31 -34 -42 -14 -42 21 0 62 49 51 60 -7 7 -19 1
-37 -18z"/>
<path d="M4236 2841 c-19 -20 -24 -31 -16 -36 13 -8 73 48 63 59 -11 11 -18 7
-47 -23z"/>
<path d="M2187 2832 c-45 -46 -29 -60 20 -18 20 17 25 28 17 35 -7 8 -18 3
-37 -17z"/>
<path d="M3177 2832 c-29 -30 -33 -42 -17 -42 12 0 59 50 60 63 0 15 -17 6
-43 -21z"/>
<path d="M3857 2832 c-30 -31 -33 -42 -14 -42 16 0 57 42 57 58 0 19 -14 14
-43 -16z"/>
<path d="M1003 2826 c-29 -25 -27 -42 4 -32 22 7 46 43 34 51 -5 3 -22 -6 -38
-19z"/>
<path d="M4275 2820 c-26 -27 -27 -30 -8 -30 26 0 60 37 47 50 -7 7 -20 0 -39
-20z"/>
<path d="M4775 2820 c-19 -19 -24 -30 -14 -30 16 0 29 9 47 32 23 30 -4 28
-33 -2z"/>
<path d="M1384 2825 c-10 -8 -14 -15 -8 -15 5 0 19 7 30 15 10 8 14 15 8 15
-5 0 -19 -7 -30 -15z"/>
<path d="M1680 2815 c-18 -19 -20 -25 -8 -25 15 0 48 30 48 43 0 14 -17 6 -40
-18z"/>
<path d="M2229 2814 c-22 -23 -22 -24 -2 -24 11 0 28 8 37 19 27 30 -7 35 -35
5z"/>
<path d="M2480 2815 c-23 -24 -23 -25 -3 -25 18 0 53 28 53 43 0 16 -28 5 -50
-18z"/>
<path d="M2910 2815 c-23 -24 -23 -25 -3 -25 18 0 53 28 53 43 0 16 -28 5 -50
-18z"/>
<path d="M3219 2814 c-22 -23 -22 -24 -2 -24 11 0 28 8 37 19 27 30 -7 35 -35
5z"/>
<path d="M3899 2814 c-22 -23 -22 -24 -2 -24 11 0 28 8 37 19 27 30 -7 35 -35
5z"/>
<path d="M495 2805 c-59 -58 -5 -158 75 -140 35 8 58 33 66 73 5 26 1 36 -24
62 -39 38 -83 40 -117 5z"/>
<path d="M1054 2813 c-12 -12 -13 -18 -4 -21 7 -3 22 5 33 17 18 18 19 21 5
21 -9 0 -24 -8 -34 -17z"/>
<path d="M1115 2810 c-15 -16 -15 -20 -3 -20 8 0 23 9 33 20 15 16 15 20 3 20
-8 0 -23 -9 -33 -20z"/>
<path d="M1175 2810 c-18 -19 -17 -20 2 -20 11 0 28 9 38 20 18 19 17 20 -2
20 -11 0 -28 -9 -38 -20z"/>
<path d="M1235 2810 c-18 -19 -17 -20 2 -20 11 0 28 9 38 20 18 19 17 20 -2
20 -11 0 -28 -9 -38 -20z"/>
<path d="M1302 2818 c-7 -7 -12 -16 -12 -20 0 -15 27 -8 45 12 18 19 17 20 -1
20 -11 0 -25 -5 -32 -12z"/>
<path d="M1735 2810 c-23 -26 -4 -26 26 0 18 15 20 19 8 20 -9 0 -24 -9 -34
-20z"/>
<path d="M2285 2810 c-10 -11 -13 -20 -8 -20 13 0 38 29 31 35 -3 3 -13 -4
-23 -15z"/>
<path d="M2535 2810 c-10 -11 -13 -20 -8 -20 13 0 38 29 31 35 -3 3 -13 -4
-23 -15z"/>
<path d="M2965 2810 c-18 -19 -17 -20 2 -20 11 0 28 9 38 20 18 19 17 20 -2
20 -11 0 -28 -9 -38 -20z"/>
<path d="M3275 2810 c-18 -19 -17 -20 2 -20 11 0 28 9 38 20 18 19 17 20 -2
20 -11 0 -28 -9 -38 -20z"/>
<path d="M3340 2810 c-24 -19 -24 -20 -4 -20 11 0 29 9 39 20 24 27 -1 27 -35
0z"/>
<path d="M3405 2810 c-15 -16 -15 -20 -3 -20 8 0 23 9 33 20 15 16 15 20 3 20
-8 0 -23 -9 -33 -20z"/>
<path d="M3465 2810 c-17 -18 -17 -20 -1 -20 9 0 26 9 38 20 21 20 22 20 1 20
-11 0 -28 -9 -38 -20z"/>
<path d="M3525 2810 c-18 -19 -17 -20 2 -20 11 0 28 9 38 20 18 19 17 20 -2
20 -11 0 -28 -9 -38 -20z"/>
<path d="M3585 2810 c-18 -19 -17 -20 2 -20 11 0 28 9 38 20 18 19 17 20 -2
20 -11 0 -28 -9 -38 -20z"/>
<path d="M4325 2810 c-18 -19 -17 -20 2 -20 11 0 28 9 38 20 18 19 17 20 -2
20 -11 0 -28 -9 -38 -20z"/>
<path d="M4825 2810 c-18 -19 -17 -20 2 -20 11 0 28 9 38 20 18 19 17 20 -2
20 -11 0 -28 -9 -38 -20z"/>
<path d="M5389 2801 c-42 -43 -34 -106 18 -130 46 -21 95 -4 113 40 37 89 -63
158 -131 90z"/>
<path d="M2879 2429 c-119 -12 -192 -41 -250 -99 -55 -55 -69 -95 -69 -195 1
-111 46 -182 148 -234 118 -60 361 -75 502 -32 91 28 119 42 165 83 133 116
98 340 -64 423 -101 50 -265 71 -432 54z m280 -197 c34 -25 36 -37 9 -62 -55
-51 -192 -62 -287 -24 -79 31 -73 83 13 103 66 16 235 5 265 -17z"/>
<path d="M1342 2362 c-7 -5 -10 -15 -8 -23 7 -18 -134 -106 -144 -89 -8 12
-40 3 -40 -12 0 -6 16 -36 35 -68 42 -70 83 -92 124 -69 15 9 27 25 29 40 3
22 7 25 32 21 35 -5 70 27 70 64 0 26 -65 144 -78 144 -4 0 -13 -4 -20 -8z
m42 -98 c18 -47 -11 -79 -45 -48 -24 21 -24 40 -1 53 25 15 39 13 46 -5z m-78
-91 c-4 -27 -31 -39 -51 -23 -35 29 -37 48 -8 64 26 14 29 14 45 -4 9 -11 15
-28 14 -37z"/>
<path d="M635 2335 c-53 -52 -14 -140 61 -138 42 1 84 38 84 74 0 28 -26 75
-45 83 -35 13 -76 6 -100 -19z"/>
<path d="M5245 2335 c-35 -34 -33 -78 5 -117 26 -25 36 -29 63 -24 37 7 77 47
77 77 0 77 -92 118 -145 64z"/>
<path d="M4654 2340 c-25 -10 -71 -64 -103 -120 l-22 -39 21 -11 c13 -7 20 -7
20 0 0 5 5 10 11 10 20 0 149 -82 143 -92 -6 -9 13 -38 25 -38 15 0 81 139 81
171 0 88 -95 152 -176 119z m99 -60 c33 -26 40 -60 22 -104 l-16 -37 -57 32
c-110 62 -106 57 -63 100 35 35 77 38 114 9z"/>
<path d="M1493 2138 c-6 -7 -12 -20 -15 -28 -7 -19 -141 -63 -167 -55 -10 3
-23 -1 -30 -9 -10 -12 -7 -22 16 -51 31 -39 59 -43 56 -7 -4 33 31 28 60 -10
27 -34 25 -62 -3 -53 -9 3 -22 -1 -29 -9 -9 -11 -6 -21 16 -47 15 -19 28 -36
30 -38 5 -8 33 22 31 33 -2 6 17 44 41 84 31 51 48 71 59 67 8 -3 21 0 28 6
11 9 5 22 -33 70 -25 32 -47 59 -48 59 -2 0 -7 -6 -12 -12z m2 -107 c-20 -40
-34 -47 -50 -25 -20 27 -19 30 18 42 48 15 49 14 32 -17z"/>
<path d="M4441 2074 c-41 -52 -42 -56 -25 -69 14 -10 21 -10 26 -2 8 14 4 18
56 -69 23 -38 42 -77 42 -86 0 -8 6 -21 13 -27 11 -8 21 -2 45 28 30 37 30 39
13 55 -14 13 -20 14 -23 5 -5 -15 -28 -3 -28 14 0 7 12 28 28 46 19 23 32 30
45 26 12 -5 14 -11 8 -19 -7 -8 -4 -16 9 -24 16 -10 23 -6 49 27 25 32 28 41
17 50 -7 6 -20 9 -28 6 -7 -3 -49 7 -93 22 -64 22 -80 32 -80 48 0 37 -30 24
-74 -31z m103 -47 l28 -12 -19 -24 -20 -24 -21 31 c-12 16 -22 33 -22 36 0 9
22 6 54 -7z"/>
<path d="M1619 1963 c-12 -14 -12 -17 0 -21 8 -3 -9 -27 -50 -68 -44 -45 -66
-60 -75 -54 -8 7 -16 5 -24 -5 -11 -14 -7 -22 25 -55 42 -43 60 -41 60 8 0 23
5 27 31 30 l32 3 -15 -62 c-14 -60 -13 -62 8 -86 20 -21 25 -22 38 -9 11 12
12 18 3 29 -9 10 -9 28 0 71 l13 58 67 -4 c83 -6 91 5 38 57 -32 32 -42 36
-54 26 -8 -7 -13 -18 -10 -25 3 -9 -9 -12 -41 -12 -25 0 -45 3 -45 6 0 4 10
16 23 28 16 15 26 19 33 12 8 -8 15 -6 24 5 11 14 8 21 -20 50 -39 40 -43 41
-61 18z"/>
<path d="M4287 1904 c-57 -54 -66 -68 -56 -80 7 -8 19 -12 28 -9 21 8 123
-102 116 -125 -3 -10 1 -23 10 -30 12 -10 26 -1 85 56 l70 68 -27 28 c-21 22
-29 25 -40 16 -8 -6 -12 -19 -10 -29 3 -10 -5 -27 -19 -40 l-24 -23 -22 22
-22 22 27 28 c32 33 33 38 10 46 -10 4 -25 -2 -40 -16 l-23 -22 -22 22 -22 22
24 25 c18 19 26 22 37 13 11 -9 17 -8 29 3 12 13 11 18 -13 41 l-28 27 -68
-65z"/>
<path d="M887 1923 c-20 -5 -47 -53 -47 -83 0 -31 53 -80 85 -80 32 0 85 50
85 80 0 26 -18 61 -39 77 -16 12 -50 15 -84 6z"/>
<path d="M5015 1905 c-17 -16 -25 -35 -25 -57 1 -106 145 -116 166 -12 4 24 0
37 -21 62 -34 41 -84 44 -120 7z"/>
<path d="M1810 1795 c-9 -10 -9 -19 -2 -27 15 -19 -81 -144 -107 -140 -10 2
-21 -4 -24 -13 -5 -10 16 -32 70 -72 l75 -57 24 29 c20 26 22 32 9 44 -11 11
-17 12 -29 2 -12 -10 -20 -9 -40 6 -31 22 -31 25 -7 54 l18 22 30 -21 c27 -19
32 -20 43 -6 11 12 8 19 -19 42 l-33 27 24 22 c23 21 23 21 46 3 17 -14 22
-25 17 -40 -14 -43 41 -34 65 11 8 13 2 22 -28 42 -20 14 -56 39 -78 56 -36
27 -43 29 -54 16z"/>
<path d="M4165 1782 c-23 -5 -125 -79 -125 -90 0 -14 22 -31 34 -26 19 7 109
-112 101 -135 -3 -10 1 -23 8 -29 11 -9 23 -5 55 20 34 26 39 34 29 49 -8 12
-16 15 -27 9 -21 -11 -48 26 -31 43 7 7 25 4 60 -13 48 -22 51 -22 75 -6 22
14 24 19 14 36 -8 13 -16 16 -24 9 -7 -6 -24 -4 -46 6 -30 12 -35 18 -30 40 9
52 -40 98 -93 87z m29 -48 c21 -8 21 -48 0 -68 -20 -21 -22 -20 -45 7 -28 34
-23 46 28 66 1 1 8 -2 17 -5z"/>
<path d="M1980 1660 c-7 -14 -7 -20 0 -20 17 0 10 -23 -29 -90 -21 -36 -44
-64 -51 -62 -13 3 -30 -15 -30 -31 0 -11 140 -77 163 -77 96 0 162 123 106
201 -16 23 -127 99 -144 99 -2 0 -9 -9 -15 -20z m101 -82 c34 -37 41 -65 24
-98 -18 -34 -43 -50 -80 -50 -29 0 -65 16 -65 29 0 19 76 141 87 141 7 0 22
-10 34 -22z"/>
<path d="M3917 1626 c-43 -23 -62 -39 -62 -52 0 -12 7 -19 19 -19 24 0 109
-138 95 -152 -10 -10 -2 -43 10 -42 20 2 127 78 137 98 17 33 3 73 -32 91 -17
9 -29 21 -26 28 8 25 -8 61 -31 68 -41 14 -48 13 -110 -20z m93 -31 c11 -13 9
-20 -10 -40 -29 -31 -33 -31 -51 1 -12 23 -12 27 6 40 24 18 39 18 55 -1z m58
-87 c17 -17 15 -24 -10 -48 -29 -27 -42 -25 -57 7 -11 23 -10 29 5 40 22 16
46 17 62 1z"/>
<path d="M1181 1533 c-59 -48 -22 -147 54 -147 74 0 110 84 60 138 -29 31 -82
35 -114 9z"/>
<path d="M4705 1525 c-51 -50 -14 -139 58 -139 66 0 103 63 73 122 -26 50 -91
58 -131 17z"/>
<path d="M2334 1476 c-119 -52 -98 -243 27 -249 19 -1 36 -5 39 -8 3 -4 14 -9
26 -13 18 -5 23 0 37 41 8 27 18 55 22 64 9 23 -92 59 -106 38 -13 -21 -11
-24 20 -36 24 -9 29 -15 24 -33 -5 -19 -11 -21 -41 -16 -50 8 -77 37 -77 85 0
28 8 47 24 65 40 43 121 30 121 -19 0 -27 17 -36 43 -23 40 20 7 83 -56 107
-37 14 -65 13 -103 -3z"/>
<path d="M3425 1424 c-51 -55 -17 -116 72 -128 54 -7 75 -29 51 -52 -23 -22
-68 -22 -68 1 0 9 -9 15 -25 15 -20 0 -25 -5 -25 -24 0 -32 22 -48 65 -48 79
0 127 49 105 107 -11 30 -32 41 -93 49 -51 8 -68 26 -47 51 16 19 46 19 54 0
7 -20 45 -19 53 0 10 28 -26 55 -74 55 -35 0 -49 -6 -68 -26z"/>
<path d="M3727 1422 c-22 -24 -21 -55 1 -75 23 -21 46 -22 66 -1 23 22 20 60
-6 78 -29 21 -41 20 -61 -2z"/>
<path d="M2601 1403 c-23 -12 -40 -31 -53 -61 -51 -115 48 -222 167 -181 31
11 45 24 63 59 64 125 -52 245 -177 183z m99 -38 c50 -26 63 -71 35 -124 -21
-41 -64 -54 -106 -33 -64 32 -61 129 5 158 39 17 32 17 66 -1z"/>
<path d="M3162 1393 c-38 -4 -43 -7 -40 -26 2 -12 10 -22 18 -22 21 0 42 -152
23 -171 -7 -7 -13 -20 -13 -29 0 -14 8 -16 58 -10 84 10 118 23 147 56 30 36
34 103 9 150 -26 51 -73 63 -202 52z m117 -44 c17 -6 36 -19 41 -29 16 -31 12
-85 -10 -107 -17 -19 -76 -41 -85 -31 -1 1 -7 40 -12 85 -11 97 -3 106 66 82z"/>
<path d="M2904 1371 c-46 -28 -64 -59 -64 -112 0 -62 32 -109 88 -129 115 -40
211 80 156 195 -28 61 -119 83 -180 46z m98 -30 c22 -4 48 -48 48 -82 0 -53
-32 -89 -78 -89 -52 0 -82 32 -82 86 0 63 45 97 112 85z"/>
<path d="M1555 1215 c-53 -52 -16 -139 60 -139 64 0 101 64 71 122 -26 50 -91
58 -131 17z"/>
<path d="M4331 1223 c-59 -48 -22 -147 54 -147 74 0 112 88 60 139 -29 30 -83
33 -114 8z"/>
<path d="M1986 985 c-33 -31 -34 -74 -2 -111 33 -39 89 -39 122 0 28 31 30 56
9 95 -25 49 -86 56 -129 16z"/>
<path d="M3895 985 c-32 -31 -32 -75 -1 -111 44 -52 126 -30 141 36 18 80 -82
134 -140 75z"/>
<path d="M2455 845 c-41 -40 -33 -105 16 -130 39 -21 64 -19 95 9 21 18 28 32
28 61 0 74 -88 112 -139 60z"/>
<path d="M3429 841 c-17 -18 -29 -40 -29 -56 0 -32 49 -85 79 -85 79 0 119 89
65 144 -36 35 -77 34 -115 -3z"/>
<path d="M2940 795 c-38 -41 -24 -116 25 -135 30 -11 82 3 101 27 7 10 14 33
14 51 0 73 -90 110 -140 57z"/>
</g>
</svg>
